<svg width="100%" height="100%" viewBox="0 0 765 352" version="1.1" xmlns="http://www.w3.org/2000/svg" xmlns:xlink="http://www.w3.org/1999/xlink" xml:space="preserve" xmlns:serif="http://www.serif.com/" style="fill-rule:evenodd;clip-rule:evenodd;stroke-linejoin:round;stroke-miterlimit:2;">
    <g transform="matrix(1,0,0,1,0,25)">
        <path d="M182.539,303.904C162.316,303.904 145.921,287.509 145.921,267.286C145.921,247.062 162.316,230.668 182.539,230.668C202.763,230.668 219.157,247.062 219.157,267.286C219.157,287.509 202.763,303.904 182.539,303.904Z" style="fill:rgb(14,26,63);fill-rule:nonzero;" />
    </g>
    <g transform="matrix(1,0,0,1,0,25)">
        <path d="M583.037,303.904C603.26,303.904 619.655,287.509 619.655,267.286C619.655,247.062 603.26,230.668 583.037,230.668C562.814,230.668 546.419,247.062 546.419,267.286C546.419,287.509 562.814,303.904 583.037,303.904Z" style="fill:rgb(14,26,63);fill-rule:nonzero;" />
    </g>
</svg>