<svg xml:space="preserve" style="clip-rule:evenodd;fill-rule:evenodd;stroke-linejoin:round;stroke-miterlimit:2" xmlns="http://www.w3.org/2000/svg" viewBox="0 0 764.424 554.345"><g style="display:inline"><g style="fill:#c1cae2;fill-opacity:1"><path style="fill:#c1cae2;fill-opacity:1;stroke-width:.999999;stop-color:#000" d="M310.135 322.961s-51.672 11.384-73.976 24.748c-27.67 16.58-70.358 66.44-70.358 66.44s65.094-21.322 93.09-40.28c19.937-13.5 51.244-50.908 51.244-50.908z" transform="translate(3.208 -6)"/><path style="clip-rule:evenodd;fill:#c1cae2;fill-opacity:1;fill-rule:evenodd;stroke-width:.999999;stroke-linejoin:round;stroke-miterlimit:2;stop-color:#000" d="M325.907 336.819s-48.743 20.583-68.249 37.778c-24.197 21.33-57.115 78.117-57.115 78.117s60.138-32.794 84.222-56.523c17.152-16.898 41.142-59.372 41.142-59.372zM352.472 355.698s-31.017 42.866-38.786 67.68c-9.639 30.783-8.358 96.409-8.358 96.409s34.433-59.215 42.732-91.99c5.91-23.342 4.412-72.099 4.412-72.099z" transform="translate(3.208 -6)"/><path style="clip-rule:evenodd;fill:#c1cae2;fill-opacity:1;fill-rule:evenodd;stroke-width:.999999;stroke-linejoin:round;stroke-miterlimit:2;stop-color:#000" d="M342.42 349.77s-44.261 28.99-60.368 49.403c-19.98 25.324-42.182 87.093-42.182 87.093s53.282-43.046 72.722-70.709c13.844-19.7 29.829-65.787 29.829-65.787z" transform="translate(3.208 -6)"/></g><g style="fill:#c1cae2;fill-opacity:1"><g style="clip-rule:evenodd;display:inline;fill:#c1cae2;fill-opacity:1;fill-rule:evenodd;stroke-linejoin:round;stroke-miterlimit:2"><path style="clip-rule:evenodd;fill:#c1cae2;fill-opacity:1;fill-rule:evenodd;stroke-width:.999999;stroke-linejoin:round;stroke-miterlimit:2;stop-color:#000" d="M343.355 336.613s-31.018 42.866-38.787 67.68c-9.638 30.783-8.358 96.409-8.358 96.409s34.433-59.215 42.732-91.99c5.91-23.342 4.413-72.099 4.413-72.099zM323.46 343.537s-44.263 28.99-60.369 49.403c-19.98 25.323-42.183 87.092-42.183 87.092s53.283-43.046 72.723-70.709c13.844-19.7 29.829-65.786 29.829-65.786z" transform="rotate(178.721 410.66 315.85)"/></g><g style="clip-rule:evenodd;display:inline;fill:#c1cae2;fill-opacity:1;fill-rule:evenodd;stroke-linejoin:round;stroke-miterlimit:2"><path style="clip-rule:evenodd;fill:#c1cae2;fill-opacity:1;fill-rule:evenodd;stroke-width:.999999;stroke-linejoin:round;stroke-miterlimit:2;stop-color:#000" d="M343.355 336.613s-31.018 42.866-38.787 67.68c-9.638 30.783-8.358 96.409-8.358 96.409s34.433-59.215 42.732-91.99c5.91-23.342 4.413-72.099 4.413-72.099zM323.46 343.537s-44.263 28.99-60.369 49.403c-19.98 25.323-42.183 87.092-42.183 87.092s53.283-43.046 72.723-70.709c13.844-19.7 29.829-65.786 29.829-65.786z" transform="scale(1 -1) rotate(-1.279 -27921.057 2549.182)"/></g></g><g style="clip-rule:evenodd;fill:#c1cae2;fill-opacity:1;fill-rule:evenodd;stroke-linejoin:round;stroke-miterlimit:2"><path style="fill:#c1cae2;fill-opacity:1;stroke-width:.999999;stop-color:#000" d="M310.135 322.961s-51.672 11.384-73.976 24.748c-27.67 16.58-70.358 66.44-70.358 66.44s65.094-21.322 93.09-40.28c19.937-13.5 51.244-50.908 51.244-50.908z" transform="matrix(-1 0 0 1 761.216 -.678)"/><path style="clip-rule:evenodd;fill:#c1cae2;fill-opacity:1;fill-rule:evenodd;stroke-width:.999999;stroke-linejoin:round;stroke-miterlimit:2;stop-color:#000" d="M325.907 336.819s-48.743 20.583-68.249 37.778c-24.197 21.33-57.115 78.117-57.115 78.117s60.138-32.794 84.222-56.523c17.152-16.898 41.142-59.372 41.142-59.372zM352.472 355.698s-31.017 42.866-38.786 67.68c-9.639 30.783-8.358 96.409-8.358 96.409s34.433-59.215 42.732-91.99c5.91-23.342 4.412-72.099 4.412-72.099z" transform="matrix(-1 0 0 1 761.216 -.678)"/><path style="clip-rule:evenodd;fill:#c1cae2;fill-opacity:1;fill-rule:evenodd;stroke-width:.999999;stroke-linejoin:round;stroke-miterlimit:2;stop-color:#000" d="M342.42 349.77s-44.261 28.99-60.368 49.403c-19.98 25.324-42.182 87.093-42.182 87.093s53.282-43.046 72.722-70.709c13.844-19.7 29.829-65.787 29.829-65.787z" transform="matrix(-1 0 0 1 761.216 -.678)"/></g><g style="fill:#c1cae2;fill-opacity:1"><path style="clip-rule:evenodd;display:inline;fill:#c1cae2;fill-opacity:1;fill-rule:evenodd;stroke-width:.999999;stroke-linejoin:round;stroke-miterlimit:2;stop-color:#000" d="M129.154 168.63s-27.229-45.368-46.993-62.263C57.64 85.407-3.208 60.795-3.208 60.795s40.92 54.933 67.798 75.444c19.14 14.607 64.564 32.39 64.564 32.39z" transform="translate(3.208 -6)"/><path style="clip-rule:evenodd;display:inline;fill:#c1cae2;fill-opacity:1;fill-rule:evenodd;stroke-width:1.52224;stroke-linejoin:round;stroke-miterlimit:2;stop-color:#000" d="M168.23 207.468s10.034-64.07-.925-94.928C153.711 74.26 88.797 6 88.797 6s-.011 83.358 17.696 122.917c12.609 28.172 61.737 78.551 61.737 78.551z" transform="translate(3.208 -6)"/></g><g style="clip-rule:evenodd;display:inline;fill:#c1cae2;fill-opacity:1;fill-rule:evenodd;stroke-linejoin:round;stroke-miterlimit:2"><path style="clip-rule:evenodd;display:inline;fill:#c1cae2;fill-opacity:1;fill-rule:evenodd;stroke-width:.999999;stroke-linejoin:round;stroke-miterlimit:2;stop-color:#000" d="M129.154 168.63s-27.229-45.368-46.993-62.263C57.64 85.407-3.208 60.795-3.208 60.795s40.92 54.933 67.798 75.444c19.14 14.607 64.564 32.39 64.564 32.39z" transform="matrix(-1 0 0 1 761.216 -6)"/><path style="clip-rule:evenodd;display:inline;fill:#c1cae2;fill-opacity:1;fill-rule:evenodd;stroke-width:1.52224;stroke-linejoin:round;stroke-miterlimit:2;stop-color:#000" d="M168.23 207.468s10.034-64.07-.925-94.928C153.711 74.26 88.797 6 88.797 6s-.011 83.358 17.696 122.917c12.609 28.172 61.737 78.551 61.737 78.551z" transform="matrix(-1 0 0 1 761.216 -6)"/></g></g></svg>