<?xml version="1.0" encoding="UTF-8" standalone="no"?>
<svg
   viewBox="0 0 764.42401 554.3454"
   xml:space="preserve"
   style="clip-rule:evenodd;fill-rule:evenodd;stroke-linejoin:round;stroke-miterlimit:2"
   version="1.1"
   id="svg16"
   sodipodi:docname="owl-beak.svg"
   inkscape:version="1.2.1 (9c6d41e, 2022-07-14)"
   width="764.42401"
   height="554.3454"
   xmlns:inkscape="http://www.inkscape.org/namespaces/inkscape"
   xmlns:sodipodi="http://sodipodi.sourceforge.net/DTD/sodipodi-0.dtd"
   xmlns="http://www.w3.org/2000/svg"
   xmlns:svg="http://www.w3.org/2000/svg"><defs
     id="defs20" /><sodipodi:namedview
     id="namedview18"
     pagecolor="#ffffff"
     bordercolor="#000000"
     borderopacity="0.25"
     inkscape:showpageshadow="2"
     inkscape:pageopacity="0.0"
     inkscape:pagecheckerboard="0"
     inkscape:deskcolor="#d1d1d1"
     showgrid="false"
     inkscape:zoom="0.80812548"
     inkscape:cx="313.68891"
     inkscape:cy="360.71131"
     inkscape:window-width="1512"
     inkscape:window-height="853"
     inkscape:window-x="0"
     inkscape:window-y="38"
     inkscape:window-maximized="1"
     inkscape:current-layer="svg16" /><g
     id="g2358"
     transform="translate(-0.576,-3.0683305e-4)"
     style="display:none"><path
       d="m 244.728,323.185 c -1.595,1.45 -20.969,22.978 -56.604,28.741 0,0 24.274,-0.556 33.708,-5.345 9.433,-4.79 23.156,-19.877 22.896,-23.396 z"
       style="fill:#0e1a3f"
       id="path2" /><path
       d="m 98.397,235.779 23.461,-8.495 65.124,8.495 74.832,36 c 0,0 7.984,13.083 -13.763,41.664 l -21.538,17.604 -32.309,13.254 c 0,0 -19.104,7.689 -38.845,0 -19.739,-7.689 -26.535,-13.254 -26.535,-13.254 L 111.673,309.754 92.581,252.476 Z"
       style="fill:#ffc74d"
       id="path4" /><path
       d="m 80.419,255.921 c -0.06,15.427 7.938,67.75 43.544,85.933 -16.005,-12.209 -31.213,-40.883 -35.701,-58.242 11.004,24.684 30.836,49.559 42.57,55.781 20.568,10.908 30.542,12.154 47.058,10.284 61.326,-6.943 80.093,-51.421 80.093,-51.421 -25.556,43.63 -78.534,47.059 -84.455,47.681 -5.922,0.624 -18.388,-3.116 -25.556,-6.544 -7.168,-3.428 -20.256,-17.14 -27.424,-26.178 -7.168,-9.037 -24.932,-49.863 -17.764,-64.198 7.168,-14.336 24.308,-16.205 24.308,-16.205 51.733,-0.313 113.736,31.817 119.656,35.868 5.921,4.051 14.975,11.19 17.779,29.576 2.804,18.387 -13.401,41.137 -13.401,41.137 -0.861,3.873 30.382,-11.596 32.353,-37.013 10.745,10.904 21.488,18.649 32.23,25.792 0,0 -29.569,-35.173 -39.312,-46.103 -6.057,-6.798 -12.277,-13.503 -19.14,-19.484 -16.89,-14.719 -66.225,-51.556 -82.197,-68.826 -8.457,-9.146 -14.803,-24.277 -13.635,-34.795 1.17,-10.518 18.09,-17.875 13.635,-26.879 C 168.832,119.497 142.842,97.549 124.057,83.439 94.976,61.595 0.576,-9.318 0.576,1.024 c 0,10.342 104.713,114.16 123.481,144.468 6.832,11.03 -18.684,27.012 -10.875,37.375 8.5,11.28 57.582,6.364 61.878,30.306 -0.746,14.302 -11.863,15.582 -16.586,15.476 l -0.334,-0.062 c 0.68,-0.013 1.063,-0.022 1.063,-0.022 -1.731,-0.22 -3.461,-0.454 -5.189,-0.701 -2.12,-0.355 -4.208,-0.676 -6.254,-0.961 -27.999,-4.588 -55.999,-13.161 -83.998,-29.015 -0.478,2.872 30.414,19.592 50.444,27.198 -18.562,0.356 -22.054,3.643 -28.562,11.153 -4.307,4.971 -5.78,11.83 -5.225,19.682 z"
       style="fill:#050f31;fill-opacity:1"
       id="path6" /><path
       d="m 100.784,205.449 c 0,0 10.92,8.485 17.232,11.105 7.276,3.022 24.891,7.392 26.422,7.021 0.767,0.256 -12.313,-4.278 -22.685,-8.3 -10.371,-4.02 -20.969,-9.826 -20.969,-9.826 z M 267.031,341.95 c 5.477,-3.3 11.41,-10.331 14.162,-16.356 0,0 5.092,6.603 4.435,9.918 -0.656,3.314 -5.277,8.899 -8.376,9.972 -3.1,1.073 -10.221,-3.534 -10.221,-3.534 z m 253.817,-18.765 c 1.595,1.45 20.969,22.978 56.604,28.741 0,0 -24.273,-0.556 -33.707,-5.345 -9.434,-4.79 -23.156,-19.877 -22.897,-23.396 z"
       style="fill:#0e1a3f"
       id="path8" /><path
       d="m 667.18,235.779 -23.461,-8.495 -65.125,8.495 -74.832,36 c 0,0 -7.984,13.083 13.763,41.664 l 21.539,17.604 32.308,13.254 c 0,0 19.105,7.689 38.845,0 19.74,-7.689 26.535,-13.254 26.535,-13.254 l 17.151,-21.293 19.093,-57.278 z"
       style="fill:#ffc74d"
       id="path10" /><path
       d="m 685.157,255.921 c 0.061,15.427 -7.937,67.75 -43.544,85.933 16.006,-12.209 31.213,-40.883 35.702,-58.242 -11.005,24.684 -30.837,49.559 -42.571,55.781 -20.568,10.908 -30.541,12.154 -47.058,10.284 -61.326,-6.943 -80.092,-51.421 -80.092,-51.421 25.555,43.63 78.534,47.059 84.455,47.681 5.922,0.624 18.387,-3.116 25.555,-6.544 7.168,-3.428 20.257,-17.14 27.425,-26.178 7.168,-9.037 24.931,-49.863 17.763,-64.198 -7.168,-14.336 -24.308,-16.205 -24.308,-16.205 -51.733,-0.313 -113.735,31.817 -119.656,35.868 -5.921,4.051 -14.975,11.19 -17.779,29.576 -2.804,18.387 13.401,41.137 13.401,41.137 0.861,3.873 -30.382,-11.596 -32.352,-37.013 -10.746,10.904 -21.488,18.649 -32.231,25.792 0,0 29.57,-35.173 39.312,-46.103 6.057,-6.798 12.278,-13.503 19.141,-19.484 16.889,-14.719 66.224,-51.556 82.196,-68.826 8.457,-9.146 14.803,-24.277 13.635,-34.795 -1.17,-10.518 -18.09,-17.875 -13.635,-26.879 6.229,-12.588 32.218,-34.536 51.003,-48.646 C 670.6,61.595 765,-9.318 765,1.024 c 0,10.342 -104.713,114.16 -123.481,144.468 -6.832,11.03 18.684,27.012 10.875,37.375 -8.5,11.28 -57.582,6.364 -61.878,30.306 0.746,14.302 11.863,15.582 16.586,15.476 l 0.335,-0.062 a 268.87,268.87 0 0 1 -1.064,-0.022 c 1.732,-0.22 3.462,-0.454 5.189,-0.701 2.12,-0.355 4.208,-0.676 6.254,-0.961 27.999,-4.588 55.999,-13.161 83.998,-29.015 0.478,2.872 -30.414,19.592 -50.443,27.198 18.561,0.356 22.053,3.643 28.562,11.153 4.307,4.971 5.78,11.83 5.224,19.682 z"
       style="fill:#050f31;fill-opacity:1"
       id="path12" /><path
       d="m 664.793,205.449 c 0,0 -10.921,8.485 -17.233,11.105 -7.275,3.022 -24.891,7.392 -26.422,7.021 -0.767,0.256 12.313,-4.278 22.686,-8.3 10.371,-4.02 20.969,-9.826 20.969,-9.826 z M 498.545,341.95 c -5.476,-3.3 -11.409,-10.331 -14.162,-16.356 0,0 -5.092,6.603 -4.435,9.918 0.657,3.314 5.277,8.899 8.377,9.972 3.099,1.073 10.22,-3.534 10.22,-3.534 z"
       style="fill:#0e1a3f"
       id="path14" /></g><g
     id="g13273"
     style="display:none"><g
       transform="translate(-0.576,20.21486)"
       id="g1962"
       style="clip-rule:evenodd;fill-rule:evenodd;stroke-linejoin:round;stroke-miterlimit:2">
        <path
   d="m 182.539,303.904 c -20.223,0 -36.618,-16.395 -36.618,-36.618 0,-20.224 16.395,-36.618 36.618,-36.618 20.224,0 36.618,16.394 36.618,36.618 0,20.223 -16.394,36.618 -36.618,36.618 z"
   style="fill:#0e1a3f;fill-rule:nonzero"
   id="path1960" />
    </g><g
       transform="translate(-0.576,20.21486)"
       id="g1966"
       style="clip-rule:evenodd;fill-rule:evenodd;stroke-linejoin:round;stroke-miterlimit:2">
        <path
   d="m 583.037,303.904 c 20.223,0 36.618,-16.395 36.618,-36.618 0,-20.224 -16.395,-36.618 -36.618,-36.618 -20.223,0 -36.618,16.394 -36.618,36.618 0,20.223 16.395,36.618 36.618,36.618 z"
   style="fill:#0e1a3f;fill-rule:nonzero"
   id="path1964" />
    </g></g><g
     id="g13281"
     style="display:inline"><g
       id="g2946"
       style="fill:#0e1a3f;fill-opacity:1"
       transform="translate(-0.576,-3.0683305e-4)"><path
         id="path2920"
         style="fill:#0e1a3f;fill-opacity:1;stroke-width:0.999999;stop-color:#000000"
         d="m 319.70898,469.31641 62.48047,85.02929 0.1543,-18.17968 0.1543,18.17968 62.48242,-85.02929 -62.63672,48.55078 z" /></g><path
       id="path2519"
       style="fill:#ffc74d;fill-opacity:1;stroke-width:0.999999;stop-color:#000000"
       d="m 353.59584,402.55321 c 4.79014,-12.21428 15.20817,-27.33132 28.32816,-27.32623 13.10945,0.005 23.50266,15.1199 28.28422,27.32623 13.05364,33.32319 6.89628,73.87394 -6,107.19838 -7.25465,18.74628 -22.59419,44.59361 -22.59419,44.59361 0,0 -14.87625,-25.94189 -22.01819,-44.59361 -12.77775,-33.37007 -19.06656,-73.88025 -6,-107.19838 z"
       sodipodi:nodetypes="aaascsa" /><g
       id="g3016"
       transform="translate(-1.0215688,-3.0683305e-4)"><path
         d="m 404.96561,433.75913 c 4.76023,0 8.61939,-3.85916 8.61939,-8.61939 0,-4.76045 -3.85916,-8.61938 -8.61939,-8.61938 -4.76022,0 -8.61938,3.85893 -8.61938,8.61938 0,4.76023 3.85916,8.61939 8.61938,8.61939 z"
         style="clip-rule:evenodd;fill:#0e1a3f;fill-rule:nonzero;stroke-width:0.235387;stroke-linejoin:round;stroke-miterlimit:2"
         id="path1964-3" /><path
         d="m 360.92341,433.75913 c 4.76023,0 8.61939,-3.85916 8.61939,-8.61939 0,-4.76045 -3.85916,-8.61938 -8.61939,-8.61938 -4.76022,0 -8.61938,3.85893 -8.61938,8.61938 0,4.76023 3.85916,8.61939 8.61938,8.61939 z"
         style="clip-rule:evenodd;fill:#0e1a3f;fill-rule:nonzero;stroke-width:0.235387;stroke-linejoin:round;stroke-miterlimit:2"
         id="path1964-3-7" /></g></g></svg>
