<svg fill="none" xml:space="preserve" xmlns="http://www.w3.org/2000/svg" viewBox="0 0 451.935 606"><g style="fill:#1b347b;fill-opacity:1"><path style="display:inline;stroke:none;stroke-opacity:1;stroke-width:19.6;stroke-dasharray:none;fill:#1b347b;fill-opacity:1" d="M217.547 235.217a48.52 48.52 0 0 0-15.836 5.76 48.52 48.52 0 0 0-12.91 10.828 48.52 48.52 0 0 0-8.428 14.59 48.52 48.52 0 0 0-2.93 16.593 48.52 48.52 0 0 0 2.924 16.596 48.52 48.52 0 0 0 8.422 14.596 48.52 48.52 0 0 0 12.906 10.836 48.52 48.52 0 0 0 15.836 5.765 48.52 48.52 0 0 0 16.852.002 48.52 48.52 0 0 0 15.836-5.76 48.52 48.52 0 0 0 12.91-10.832 48.52 48.52 0 0 0 8.428-14.591 48.52 48.52 0 0 0 2.925-16.596 48.52 48.52 0 0 0-2.923-16.594 48.52 48.52 0 0 0-8.424-14.594 48.52 48.52 0 0 0-12.906-10.832 48.52 48.52 0 0 0-15.833-5.765 48.52 48.52 0 0 0-16.85-.002zm8.853 23.54a24.252 24.252 0 0 1 23.823 24.247 24.2 24.2 0 0 1-7.108 17.152 24.313 24.313 0 0 1-17.144 7.1 24.32 24.32 0 0 1-17.15-7.094 24.2 24.2 0 0 1 0-34.303 24.252 24.252 0 0 1 17.58-7.101z"/><path style="display:inline;fill:#22419b;fill-opacity:1;stroke:none;stroke-width:19.6;stroke-dasharray:none;stroke-opacity:1" d="M50 0C22.36 0-.044 22.425 0 50.064l.697 433.82c.033 20.369 12.406 38.685 31.295 46.303L219.936 606l199.804-76.148c19.385-7.388 32.196-25.977 32.196-46.721V50c0-27.614-22.387-50-50-50z"/></g></svg>