<?xml version="1.0" standalone="no"?>
<!DOCTYPE svg PUBLIC "-//W3C//DTD SVG 20010904//EN"
 "http://www.w3.org/TR/2001/REC-SVG-20010904/DTD/svg10.dtd">
<svg version="1.0" xmlns="http://www.w3.org/2000/svg"
 width="700.000000pt" height="700.000000pt" viewBox="0 0 700.000000 700.000000"
 preserveAspectRatio="xMidYMid meet">
<metadata>
Created by potrace 1.14, written by Peter Selinger 2001-2017
</metadata>
<g transform="translate(0.000000,700.000000) scale(0.100000,-0.100000)"
fill="#000000" stroke="none">
<path d="M2520 6061 c-517 -517 -940 -943 -940 -947 0 -3 114 -120 254 -260
l253 -253 504 503 c277 276 529 521 559 543 285 208 611 162 897 -129 40 -40
88 -94 106 -120 l34 -47 24 22 c13 12 53 47 89 77 36 30 70 60 77 65 16 14 90
77 219 187 l111 94 -34 44 c-159 207 -359 340 -564 374 -19 3 -45 8 -59 11
-54 12 -247 5 -333 -13 -69 -14 -90 -16 -98 -6 -10 13 -9 16 46 104 12 19 59
95 103 168 l81 132 -195 195 -194 196 -940 -940z"/>
<path d="M4844 5166 l-254 -253 512 -514 c299 -299 530 -539 553 -574 100
-147 133 -313 96 -475 -38 -166 -196 -384 -365 -504 l-44 -31 114 -135 c63
-74 161 -190 217 -257 56 -67 106 -122 111 -123 13 0 102 69 164 129 138 132
231 307 258 481 3 19 7 46 10 60 6 37 6 201 -1 230 -3 14 -8 45 -11 70 -4 25
-10 56 -16 69 -6 18 -5 28 5 39 12 12 36 0 168 -80 85 -52 173 -106 195 -121
l42 -26 196 195 196 195 -939 939 c-517 517 -942 940 -946 940 -4 0 -121 -114
-261 -254z"/>
<path d="M3300 4898 c-301 -55 -503 -145 -702 -310 -227 -189 -406 -474 -469
-748 -6 -25 -13 -54 -15 -65 -26 -109 -26 -413 -1 -535 85 -413 329 -751 693
-959 122 -71 292 -133 419 -156 17 -2 41 -7 55 -11 44 -10 333 -13 395 -4 57
9 72 12 140 26 78 16 224 70 317 118 204 103 397 273 525 462 103 152 196 373
218 519 3 17 9 57 14 90 10 57 8 331 -2 385 -3 14 -8 43 -12 64 -13 76 -66
237 -104 319 -32 70 -131 239 -151 257 -3 3 -29 33 -59 68 -216 255 -506 418
-846 476 -88 15 -344 18 -415 4z m300 -463 c123 -12 222 -43 337 -105 293
-158 474 -445 490 -778 14 -275 -78 -515 -271 -708 -144 -144 -317 -232 -518
-264 -74 -12 -258 -9 -323 5 -225 48 -427 173 -561 347 -85 109 -163 283 -179
398 -3 25 -8 59 -11 75 -9 54 -6 189 6 253 44 245 175 458 371 604 70 52 213
123 289 143 77 21 105 26 170 31 41 4 76 8 78 9 1 1 15 1 30 0 15 -2 56 -6 92
-10z"/>
<path d="M3455 3972 c-96 -8 -214 -62 -288 -131 -112 -104 -167 -302 -126
-453 27 -104 97 -203 182 -262 148 -102 317 -116 476 -40 233 113 328 386 216
621 -55 112 -152 199 -268 241 -46 16 -145 29 -192 24z"/>
<path d="M1135 4663 c-247 -193 -367 -437 -366 -740 0 -93 7 -155 26 -225 9
-37 9 -52 0 -64 -10 -14 -26 -7 -136 61 -68 42 -133 81 -144 88 -11 7 -38 23
-60 37 -22 14 -45 29 -52 33 -7 5 -85 -66 -208 -188 l-195 -196 929 -928 c512
-510 937 -933 945 -940 13 -11 54 27 270 243 l255 255 -493 493 c-271 271
-514 520 -541 553 -194 240 -185 549 23 811 56 70 138 150 203 199 l56 41 -80
95 c-44 52 -97 114 -119 139 -21 25 -82 98 -136 162 -53 64 -101 117 -107 117
-5 1 -37 -20 -70 -46z"/>
<path d="M4389 1898 c-300 -300 -538 -529 -572 -551 -206 -136 -415 -149 -635
-38 -109 55 -254 181 -337 293 -41 54 -43 56 -61 40 -17 -15 -482 -410 -493
-419 -6 -5 18 -46 46 -79 194 -228 352 -320 618 -359 44 -7 222 -8 233 -1 4 2
30 6 57 10 28 3 64 10 82 15 24 7 35 6 43 -4 8 -10 -17 -59 -109 -209 l-120
-195 195 -195 195 -195 927 927 c510 510 933 935 941 945 12 15 -13 44 -242
272 l-255 255 -513 -512z"/>
</g>
</svg>
