<svg xml:space="preserve" style="clip-rule:evenodd;fill-rule:evenodd;stroke-linejoin:round;stroke-miterlimit:2" xmlns="http://www.w3.org/2000/svg" viewBox="0 0 764.424 554.345"><path style="clip-rule:evenodd;display:inline;fill:#5e76b4;fill-opacity:1;fill-rule:evenodd;stroke-width:.999999;stroke-linejoin:round;stroke-miterlimit:2;stop-color:#000" d="M82.809 161.432c-7.562.2-14.898 2.353-21.688 7.658-30.173 23.485-36.117 54.45-41.193 89.943-5.349 47.432 3.421 100.472 37.047 136.342 24.879 24.05 60.228 39.242 95.162 33.28 28.613-4.181 59.092-6.753 85.941 6.36 40.965 21.437 74.132 54.74 107.797 85.848 11.51 9.372 27.286 29.978 35.738 33.483l.303-1.075c0 .359.006.717.006 1.075 8.452-3.505 23.387-22.809 35.738-33.483 34.755-30.034 66.832-64.411 107.797-85.847 26.85-13.114 57.328-10.542 85.942-6.362 34.933 5.963 70.282-9.232 95.162-33.281 33.625-35.87 42.397-88.908 37.049-136.34-5.077-35.492-11.023-66.458-41.196-89.943-6.79-5.305-14.126-7.458-21.687-7.658-16.635-.44-34.23 6.806-49.78 14.31-95.92 42.73-149.47 165.486-249.18 165.486-99.708 0-160.676-121.589-249.18-165.486-15.548-7.504-33.144-14.75-49.778-14.31Z"/></svg>