<svg xmlns="http://www.w3.org/2000/svg" xml:space="preserve" style="clip-rule:evenodd;fill-rule:evenodd;stroke-linejoin:round;stroke-miterlimit:2" viewBox="0 0 764.424 554.345"><g style="display:inline"><path d="M244.728 323.185c-1.595 1.45-20.969 22.978-56.604 28.741 0 0 24.274-.556 33.708-5.345 9.433-4.79 23.156-19.877 22.896-23.396z" style="fill:#000" transform="translate(-.576)"/><path d="m98.397 235.779 23.461-8.495 65.124 8.495 74.832 36s7.984 13.083-13.763 41.664l-21.538 17.604-32.309 13.254s-19.104 7.689-38.845 0c-19.739-7.689-26.535-13.254-26.535-13.254l-17.151-21.293-19.092-57.278Z" style="display:inline;fill:#ffc74d" transform="translate(-.576)"/><path d="M80.419 255.921c-.06 15.427 7.938 67.75 43.544 85.933-16.005-12.209-31.213-40.883-35.701-58.242 11.004 24.684 30.836 49.559 42.57 55.781 20.568 10.908 30.542 12.154 47.058 10.284 61.326-6.943 80.093-51.421 80.093-51.421-25.556 43.63-78.534 47.059-84.455 47.681-5.922.624-18.388-3.116-25.556-6.544-7.168-3.428-20.256-17.14-27.424-26.178-7.168-9.037-24.932-49.863-17.764-64.198 7.168-14.336 24.308-16.205 24.308-16.205 51.733-.313 113.736 31.817 119.656 35.868 5.921 4.051 14.975 11.19 17.779 29.576 2.804 18.387-13.401 41.137-13.401 41.137-.861 3.873 30.382-11.596 32.353-37.013 10.745 10.904 21.488 18.649 32.23 25.792 0 0-29.569-35.173-39.312-46.103-6.057-6.798-12.277-13.503-19.14-19.484-16.89-14.719-66.225-51.556-82.197-68.826-8.457-9.146-14.803-24.277-13.635-34.795 1.17-10.518 18.09-17.875 13.635-26.879-6.228-12.588-32.218-34.536-51.003-48.646C94.976 61.595.576-9.318.576 1.024c0 10.342 104.713 114.16 123.481 144.468 6.832 11.03-18.684 27.012-10.875 37.375 8.5 11.28 57.582 6.364 61.878 30.306-.746 14.302-11.863 15.582-16.586 15.476l-.334-.062c.68-.013 1.063-.022 1.063-.022-1.731-.22-3.461-.454-5.189-.701-2.12-.355-4.208-.676-6.254-.961-27.999-4.588-55.999-13.161-83.998-29.015-.478 2.872 30.414 19.592 50.444 27.198-18.562.356-22.054 3.643-28.562 11.153-4.307 4.971-5.78 11.83-5.225 19.682z" style="display:inline;fill:#000;fill-opacity:1" transform="translate(-.576)"/><path d="M100.784 205.449s10.92 8.485 17.232 11.105c7.276 3.022 24.891 7.392 26.422 7.021.767.256-12.313-4.278-22.685-8.3-10.371-4.02-20.969-9.826-20.969-9.826zM267.031 341.95c5.477-3.3 11.41-10.331 14.162-16.356 0 0 5.092 6.603 4.435 9.918-.656 3.314-5.277 8.899-8.376 9.972-3.1 1.073-10.221-3.534-10.221-3.534zm253.817-18.765c1.595 1.45 20.969 22.978 56.604 28.741 0 0-24.273-.556-33.707-5.345-9.434-4.79-23.156-19.877-22.897-23.396z" style="display:inline;fill:#000" transform="translate(-.576)"/><path d="m667.18 235.779-23.461-8.495-65.125 8.495-74.832 36s-7.984 13.083 13.763 41.664l21.539 17.604 32.308 13.254s19.105 7.689 38.845 0 26.535-13.254 26.535-13.254l17.151-21.293 19.093-57.278z" style="display:inline;fill:#ffc74d" transform="translate(-.576)"/><path d="M685.157 255.921c.061 15.427-7.937 67.75-43.544 85.933 16.006-12.209 31.213-40.883 35.702-58.242-11.005 24.684-30.837 49.559-42.571 55.781-20.568 10.908-30.541 12.154-47.058 10.284-61.326-6.943-80.092-51.421-80.092-51.421 25.555 43.63 78.534 47.059 84.455 47.681 5.922.624 18.387-3.116 25.555-6.544 7.168-3.428 20.257-17.14 27.425-26.178 7.168-9.037 24.931-49.863 17.763-64.198-7.168-14.336-24.308-16.205-24.308-16.205-51.733-.313-113.735 31.817-119.656 35.868-5.921 4.051-14.975 11.19-17.779 29.576-2.804 18.387 13.401 41.137 13.401 41.137.861 3.873-30.382-11.596-32.352-37.013-10.746 10.904-21.488 18.649-32.231 25.792 0 0 29.57-35.173 39.312-46.103 6.057-6.798 12.278-13.503 19.141-19.484 16.889-14.719 66.224-51.556 82.196-68.826 8.457-9.146 14.803-24.277 13.635-34.795-1.17-10.518-18.09-17.875-13.635-26.879 6.229-12.588 32.218-34.536 51.003-48.646C670.6 61.595 765-9.318 765 1.024c0 10.342-104.713 114.16-123.481 144.468-6.832 11.03 18.684 27.012 10.875 37.375-8.5 11.28-57.582 6.364-61.878 30.306.746 14.302 11.863 15.582 16.586 15.476l.335-.062a268.87 268.87 0 0 1-1.064-.022c1.732-.22 3.462-.454 5.189-.701 2.12-.355 4.208-.676 6.254-.961 27.999-4.588 55.999-13.161 83.998-29.015.478 2.872-30.414 19.592-50.443 27.198 18.561.356 22.053 3.643 28.562 11.153 4.307 4.971 5.78 11.83 5.224 19.682z" style="display:inline;fill:#000;fill-opacity:1" transform="translate(-.576)"/><path d="M664.793 205.449s-10.921 8.485-17.233 11.105c-7.275 3.022-24.891 7.392-26.422 7.021-.767.256 12.313-4.278 22.686-8.3 10.371-4.02 20.969-9.826 20.969-9.826zM498.545 341.95c-5.476-3.3-11.409-10.331-14.162-16.356 0 0-5.092 6.603-4.435 9.918.657 3.314 5.277 8.899 8.377 9.972 3.099 1.073 10.22-3.534 10.22-3.534z" style="display:inline;fill:#000" transform="translate(-.576)"/></g></svg>