<svg xml:space="preserve" style="clip-rule:evenodd;fill-rule:evenodd;stroke-linejoin:round;stroke-miterlimit:2" xmlns="http://www.w3.org/2000/svg" viewBox="0 0 764.424 554.345"><g style="display:inline"><g style="fill:#0e1a3f;fill-opacity:1"><path style="fill:#0e1a3f;fill-opacity:1;stroke-width:.999999;stop-color:#000" d="m319.709 469.316 62.48 85.03.155-18.18.154 18.18 62.482-85.03-62.636 48.551z" transform="translate(-.576)"/></g><path style="fill:#ffc74d;fill-opacity:1;stroke-width:.999999;stop-color:#000" d="M353.596 402.553c4.79-12.214 15.208-27.331 28.328-27.326 13.11.005 23.503 15.12 28.284 27.326 13.054 33.323 6.897 73.874-6 107.199-7.254 18.746-22.594 44.593-22.594 44.593s-14.876-25.942-22.018-44.593c-12.778-33.37-19.067-73.88-6-107.199z"/><path d="M404.966 433.76a8.62 8.62 0 1 0 0-17.24 8.62 8.62 0 0 0 0 17.24zM360.923 433.76a8.62 8.62 0 1 0 0-17.24 8.62 8.62 0 0 0 0 17.24z" style="clip-rule:evenodd;fill:#0e1a3f;fill-rule:nonzero;stroke-width:.235387;stroke-linejoin:round;stroke-miterlimit:2" transform="translate(-1.022)"/></g></svg>