<svg xmlns="http://www.w3.org/2000/svg" xml:space="preserve" style="clip-rule:evenodd;fill-rule:evenodd;stroke-linejoin:round;stroke-miterlimit:2" viewBox="0 0 764.424 554.345"><g style="display:inline"><path d="m319.709 469.316 62.48 85.03.155-18.18.154 18.18 62.482-85.03-62.636 48.551z" style="clip-rule:evenodd;display:inline;fill:#000;fill-opacity:1;fill-rule:evenodd;stroke-width:.999999;stroke-linejoin:round;stroke-miterlimit:2;stop-color:#000" transform="translate(-.576)"/><path d="M353.596 402.553c4.401-17.85 9.942-47.332 28.328-47.326 18.378.006 23.891 29.481 28.284 47.326 8.555 34.751 6.897 73.874-6 107.199-7.254 18.746-22.594 44.593-22.594 44.593s-14.876-25.942-22.018-44.593c-12.778-33.37-14.567-72.45-6-107.199z" style="fill:#ffc74d;fill-opacity:1;stroke-width:.999999;stop-color:#000"/><path d="M404.966 433.76a8.62 8.62 0 1 0 0-17.24 8.62 8.62 0 0 0 0 17.24zm-44.043 0a8.62 8.62 0 1 0 0-17.24 8.62 8.62 0 0 0 0 17.24z" style="clip-rule:evenodd;fill:#0e1a3f;fill-rule:nonzero;stroke-width:.235387;stroke-linejoin:round;stroke-miterlimit:2" transform="translate(-1.022)"/></g></svg>