<svg
  xmlns="http://www.w3.org/2000/svg"
  xml:space="preserve"
  width="764.424"
  height="554.345"
  style="clip-rule: evenodd; fill-rule: evenodd; stroke-linejoin: round; stroke-miterlimit: 2"
>
  <path class="owl__raccoon"
    d="M82.809 161.432c-7.562.2-14.898 2.353-21.688 7.658-30.173 23.485-36.117 54.45-41.193 89.943-5.349 47.432 3.421 100.472 37.047 136.342 24.879 24.05 60.228 39.242 95.162 33.28 28.613-4.181 59.092-6.753 85.941 6.36 40.965 21.437 74.132 54.74 107.797 85.848 11.51 9.372 27.286 29.978 35.738 33.483l.303-1.075c0 .359.006.717.006 1.075 8.452-3.505 23.387-22.809 35.738-33.483 34.755-30.034 66.832-64.411 107.797-85.847 26.85-13.114 57.328-10.542 85.942-6.362 34.933 5.963 70.282-9.232 95.162-33.281 33.625-35.87 42.397-88.908 37.049-136.34-5.077-35.492-11.023-66.458-41.196-89.943-6.79-5.305-14.126-7.458-21.687-7.658-16.635-.44-34.23 6.806-49.78 14.31-95.92 42.73-149.47 165.486-249.18 165.486-99.708 0-160.676-121.589-249.18-165.486-15.548-7.504-33.144-14.75-49.778-14.31Z"
    style="
      clip-rule: evenodd;
      display: inline;
      fill: #192127;
      fill-opacity: 1;
      fill-rule: evenodd;
      stroke-width: 0.999999;
      stroke-linejoin: round;
      stroke-miterlimit: 2;
      stop-color: #000;
    "
  />
  <g style="display: inline; fill: #39424b; fill-opacity: 1" class="owl__feathers">
    <path
      d="M313.343 316.961s-51.672 11.384-73.976 24.748c-27.67 16.58-70.358 66.44-70.358 66.44s65.094-21.322 93.09-40.28c19.937-13.5 51.244-50.908 51.244-50.908z"
      style="fill: #39424b; fill-opacity: 1; stroke-width: 0.999999; stop-color: #000"
    />
    <path
      d="M329.115 330.819s-48.743 20.583-68.249 37.778c-24.197 21.33-57.115 78.117-57.115 78.117s60.138-32.794 84.222-56.523c17.152-16.898 41.142-59.372 41.142-59.372zm26.565 18.879s-31.017 42.866-38.786 67.68c-9.639 30.783-8.358 96.409-8.358 96.409s34.433-59.215 42.732-91.99c5.91-23.342 4.412-72.099 4.412-72.099z"
      style="
        clip-rule: evenodd;
        fill: #39424b;
        fill-opacity: 1;
        fill-rule: evenodd;
        stroke-width: 0.999999;
        stroke-linejoin: round;
        stroke-miterlimit: 2;
        stop-color: #000;
      "
    />
    <path
      d="M345.628 343.77s-44.261 28.99-60.368 49.403c-19.98 25.324-42.182 87.093-42.182 87.093s53.282-43.046 72.722-70.709c13.844-19.7 29.829-65.787 29.829-65.787zM477.485 293.59s30.053-43.548 37.266-68.529c8.949-30.99 6.204-96.572 6.204-96.572s-33.102 59.97-40.668 92.921c-5.387 23.468-2.802 72.18-2.802 72.18zm19.735-7.366s43.605-29.971 59.252-50.739c19.41-25.762 40.228-88.012 40.228-88.012s-52.309 44.225-71.127 72.315c-13.4 20.004-28.353 66.436-28.353 66.436zM286.927 293.723s-30.054-43.548-37.267-68.529c-8.949-30.99-6.204-96.571-6.204-96.571s33.103 59.968 40.668 92.92c5.388 23.469 2.803 72.18 2.803 72.18zm-19.736-7.366s-43.605-29.971-59.251-50.738c-19.41-25.763-40.229-88.012-40.229-88.012s52.31 44.224 71.127 72.314c13.4 20.004 28.353 66.436 28.353 66.436zM451.081 322.283s51.672 11.384 73.976 24.748c27.67 16.58 70.358 66.44 70.358 66.44s-65.094-21.322-93.09-40.28c-19.937-13.5-51.244-50.908-51.244-50.908z"
      style="
        clip-rule: evenodd;
        fill: #39424b;
        fill-opacity: 1;
        fill-rule: evenodd;
        stroke-width: 0.999999;
        stroke-linejoin: round;
        stroke-miterlimit: 2;
        stop-color: #000;
      "
    />
    <path
      d="M435.309 336.141s48.743 20.583 68.249 37.778c24.197 21.33 57.115 78.117 57.115 78.117s-60.138-32.794-84.222-56.523c-17.152-16.898-41.142-59.372-41.142-59.372zm-26.565 18.879s31.017 42.866 38.786 67.68c9.639 30.783 8.358 96.409 8.358 96.409s-34.433-59.215-42.732-91.99c-5.91-23.342-4.412-72.099-4.412-72.099z"
      style="
        clip-rule: evenodd;
        fill: #39424b;
        fill-opacity: 1;
        fill-rule: evenodd;
        stroke-width: 0.999999;
        stroke-linejoin: round;
        stroke-miterlimit: 2;
        stop-color: #000;
      "
    />
    <path
      d="M418.796 349.092s44.261 28.99 60.368 49.403c19.98 25.324 42.182 87.093 42.182 87.093s-53.282-43.046-72.722-70.709c-13.844-19.7-29.829-65.787-29.829-65.787z"
      style="
        clip-rule: evenodd;
        fill: #39424b;
        fill-opacity: 1;
        fill-rule: evenodd;
        stroke-width: 0.999999;
        stroke-linejoin: round;
        stroke-miterlimit: 2;
        stop-color: #000;
      "
    />
    <path
      d="M132.362 162.63s-27.229-45.368-46.993-62.263C60.848 79.407 0 54.795 0 54.795s40.92 54.933 67.798 75.444c19.14 14.607 64.564 32.39 64.564 32.39z"
      style="
        clip-rule: evenodd;
        display: inline;
        fill: #39424b;
        fill-opacity: 1;
        fill-rule: evenodd;
        stroke-width: 0.999999;
        stroke-linejoin: round;
        stroke-miterlimit: 2;
        stop-color: #000;
      "
    />
    <path
      d="M171.438 201.468s10.034-64.07-.925-94.928C156.919 68.26 92.005 0 92.005 0s-.011 83.358 17.696 122.917c12.609 28.172 61.737 78.551 61.737 78.551z"
      style="
        clip-rule: evenodd;
        display: inline;
        fill: #39424b;
        fill-opacity: 1;
        fill-rule: evenodd;
        stroke-width: 1.52224;
        stroke-linejoin: round;
        stroke-miterlimit: 2;
        stop-color: #000;
      "
    />
    <path
      d="M632.062 162.63s27.229-45.368 46.993-62.263c24.521-20.96 85.369-45.572 85.369-45.572s-40.92 54.933-67.798 75.444c-19.14 14.607-64.564 32.39-64.564 32.39z"
      style="
        clip-rule: evenodd;
        display: inline;
        fill: #39424b;
        fill-opacity: 1;
        fill-rule: evenodd;
        stroke-width: 0.999999;
        stroke-linejoin: round;
        stroke-miterlimit: 2;
        stop-color: #000;
      "
    />
    <path
      d="M592.986 201.468s-10.034-64.07.925-94.928C607.505 68.26 672.419 0 672.419 0s.011 83.358-17.696 122.917c-12.609 28.172-61.737 78.551-61.737 78.551z"
      style="
        clip-rule: evenodd;
        display: inline;
        fill: #39424b;
        fill-opacity: 1;
        fill-rule: evenodd;
        stroke-width: 1.52224;
        stroke-linejoin: round;
        stroke-miterlimit: 2;
        stop-color: #000;
      "
    />
  </g>
  <g class="owl__beak">
    <path
      d="m319.709 469.316 62.48 85.03.155-18.18.154 18.18 62.482-85.03-62.636 48.551z"
      style="
        clip-rule: evenodd;
        fill-rule: evenodd;
        stroke-linejoin: round;
        stroke-miterlimit: 2;
        display: inline;
        fill: #000;
        fill-opacity: 1;
        stroke-width: 0.999999;
        stop-color: #000;
      "
      transform="translate(-.576)"
    />
    <path
      d="M353.596 402.553c4.401-17.85 9.942-47.332 28.328-47.326 18.378.006 23.891 29.481 28.284 47.326 8.555 34.751 6.897 73.874-6 107.199-7.254 18.746-22.594 44.593-22.594 44.593s-14.876-25.942-22.018-44.593c-12.778-33.37-14.567-72.45-6-107.199z"
      style="fill: #ffc74d; fill-opacity: 1; stroke-width: 0.999999; stop-color: #000"
    />
    <path
      d="M404.966 433.76a8.62 8.62 0 1 0 0-17.24 8.62 8.62 0 0 0 0 17.24zm-44.043 0a8.62 8.62 0 1 0 0-17.24 8.62 8.62 0 0 0 0 17.24z"
      style="
        clip-rule: evenodd;
        fill: #0e1a3f;
        fill-rule: nonzero;
        stroke-width: 0.235387;
        stroke-linejoin: round;
        stroke-miterlimit: 2;
      "
      transform="translate(-1.022)"
    />
  </g>
  <g style="display: inline" class="owl__eyes">
    <path
      d="M244.728 323.185c-1.595 1.45-20.969 22.978-56.604 28.741 0 0 24.274-.556 33.708-5.345 9.433-4.79 23.156-19.877 22.896-23.396z"
      style="fill: #000"
      transform="translate(-.576)"
    />
    <path
      d="m98.397 235.779 23.461-8.495 65.124 8.495 74.832 36s7.984 13.083-13.763 41.664l-21.538 17.604-32.309 13.254s-19.104 7.689-38.845 0c-19.739-7.689-26.535-13.254-26.535-13.254l-17.151-21.293-19.092-57.278Z"
      style="display: inline; fill: #ffc74d"
      transform="translate(-.576)"
    />
    <path
      d="M80.419 255.921c-.06 15.427 7.938 67.75 43.544 85.933-16.005-12.209-31.213-40.883-35.701-58.242 11.004 24.684 30.836 49.559 42.57 55.781 20.568 10.908 30.542 12.154 47.058 10.284 61.326-6.943 80.093-51.421 80.093-51.421-25.556 43.63-78.534 47.059-84.455 47.681-5.922.624-18.388-3.116-25.556-6.544-7.168-3.428-20.256-17.14-27.424-26.178-7.168-9.037-24.932-49.863-17.764-64.198 7.168-14.336 24.308-16.205 24.308-16.205 51.733-.313 113.736 31.817 119.656 35.868 5.921 4.051 14.975 11.19 17.779 29.576 2.804 18.387-13.401 41.137-13.401 41.137-.861 3.873 30.382-11.596 32.353-37.013 10.745 10.904 21.488 18.649 32.23 25.792 0 0-29.569-35.173-39.312-46.103-6.057-6.798-12.277-13.503-19.14-19.484-16.89-14.719-66.225-51.556-82.197-68.826-8.457-9.146-14.803-24.277-13.635-34.795 1.17-10.518 18.09-17.875 13.635-26.879-6.228-12.588-32.218-34.536-51.003-48.646C94.976 61.595.576-9.318.576 1.024c0 10.342 104.713 114.16 123.481 144.468 6.832 11.03-18.684 27.012-10.875 37.375 8.5 11.28 57.582 6.364 61.878 30.306-.746 14.302-11.863 15.582-16.586 15.476l-.334-.062c.68-.013 1.063-.022 1.063-.022-1.731-.22-3.461-.454-5.189-.701-2.12-.355-4.208-.676-6.254-.961-27.999-4.588-55.999-13.161-83.998-29.015-.478 2.872 30.414 19.592 50.444 27.198-18.562.356-22.054 3.643-28.562 11.153-4.307 4.971-5.78 11.83-5.225 19.682z"
      style="display: inline; fill: #000; fill-opacity: 1"
      transform="translate(-.576)"
    />
    <path
      d="M100.784 205.449s10.92 8.485 17.232 11.105c7.276 3.022 24.891 7.392 26.422 7.021.767.256-12.313-4.278-22.685-8.3-10.371-4.02-20.969-9.826-20.969-9.826zM267.031 341.95c5.477-3.3 11.41-10.331 14.162-16.356 0 0 5.092 6.603 4.435 9.918-.656 3.314-5.277 8.899-8.376 9.972-3.1 1.073-10.221-3.534-10.221-3.534zm253.817-18.765c1.595 1.45 20.969 22.978 56.604 28.741 0 0-24.273-.556-33.707-5.345-9.434-4.79-23.156-19.877-22.897-23.396z"
      style="display: inline; fill: #000"
      transform="translate(-.576)"
    />
    <path
      d="m667.18 235.779-23.461-8.495-65.125 8.495-74.832 36s-7.984 13.083 13.763 41.664l21.539 17.604 32.308 13.254s19.105 7.689 38.845 0 26.535-13.254 26.535-13.254l17.151-21.293 19.093-57.278z"
      style="display: inline; fill: #ffc74d"
      transform="translate(-.576)"
    />
    <path
      d="M685.157 255.921c.061 15.427-7.937 67.75-43.544 85.933 16.006-12.209 31.213-40.883 35.702-58.242-11.005 24.684-30.837 49.559-42.571 55.781-20.568 10.908-30.541 12.154-47.058 10.284-61.326-6.943-80.092-51.421-80.092-51.421 25.555 43.63 78.534 47.059 84.455 47.681 5.922.624 18.387-3.116 25.555-6.544 7.168-3.428 20.257-17.14 27.425-26.178 7.168-9.037 24.931-49.863 17.763-64.198-7.168-14.336-24.308-16.205-24.308-16.205-51.733-.313-113.735 31.817-119.656 35.868-5.921 4.051-14.975 11.19-17.779 29.576-2.804 18.387 13.401 41.137 13.401 41.137.861 3.873-30.382-11.596-32.352-37.013-10.746 10.904-21.488 18.649-32.231 25.792 0 0 29.57-35.173 39.312-46.103 6.057-6.798 12.278-13.503 19.141-19.484 16.889-14.719 66.224-51.556 82.196-68.826 8.457-9.146 14.803-24.277 13.635-34.795-1.17-10.518-18.09-17.875-13.635-26.879 6.229-12.588 32.218-34.536 51.003-48.646C670.6 61.595 765-9.318 765 1.024c0 10.342-104.713 114.16-123.481 144.468-6.832 11.03 18.684 27.012 10.875 37.375-8.5 11.28-57.582 6.364-61.878 30.306.746 14.302 11.863 15.582 16.586 15.476l.335-.062a268.87 268.87 0 0 1-1.064-.022c1.732-.22 3.462-.454 5.189-.701 2.12-.355 4.208-.676 6.254-.961 27.999-4.588 55.999-13.161 83.998-29.015.478 2.872-30.414 19.592-50.443 27.198 18.561.356 22.053 3.643 28.562 11.153 4.307 4.971 5.78 11.83 5.224 19.682z"
      style="display: inline; fill: #000; fill-opacity: 1"
      transform="translate(-.576)"
    />
    <path
      d="M664.793 205.449s-10.921 8.485-17.233 11.105c-7.275 3.022-24.891 7.392-26.422 7.021-.767.256 12.313-4.278 22.686-8.3 10.371-4.02 20.969-9.826 20.969-9.826zM498.545 341.95c-5.476-3.3-11.409-10.331-14.162-16.356 0 0-5.092 6.603-4.435 9.918.657 3.314 5.277 8.899 8.377 9.972 3.099 1.073 10.22-3.534 10.22-3.534z"
      style="display: inline; fill: #000"
      transform="translate(-.576)"
    />
  </g>
  <!-- Pupils -->
  <g style="display: inline" class="owl__pupils" >
    <path
      d="M181.963 324.119c-20.223 0-36.618-16.395-36.618-36.618 0-20.224 16.395-36.618 36.618-36.618 20.224 0 36.618 16.394 36.618 36.618 0 20.223-16.394 36.618-36.618 36.618zM582.461 324.119c20.223 0 36.618-16.395 36.618-36.618 0-20.224-16.395-36.618-36.618-36.618-20.223 0-36.618 16.394-36.618 36.618 0 20.223 16.395 36.618 36.618 36.618z"
      style="
        clip-rule: evenodd;
        fill: #000;
        fill-opacity: 1;
        fill-rule: nonzero;
        stroke-linejoin: round;
        stroke-miterlimit: 2;
      "
    />
  </g>
</svg>