<svg xmlns="http://www.w3.org/2000/svg" xml:space="preserve" style="clip-rule:evenodd;fill-rule:evenodd;stroke-linejoin:round;stroke-miterlimit:2" viewBox="0 0 764.424 554.345"><g style="display:inline;fill:#39424b;fill-opacity:1"><path d="M313.343 316.961s-51.672 11.384-73.976 24.748c-27.67 16.58-70.358 66.44-70.358 66.44s65.094-21.322 93.09-40.28c19.937-13.5 51.244-50.908 51.244-50.908z" style="fill:#39424b;fill-opacity:1;stroke-width:.999999;stop-color:#000"/><path d="M329.115 330.819s-48.743 20.583-68.249 37.778c-24.197 21.33-57.115 78.117-57.115 78.117s60.138-32.794 84.222-56.523c17.152-16.898 41.142-59.372 41.142-59.372zm26.565 18.879s-31.017 42.866-38.786 67.68c-9.639 30.783-8.358 96.409-8.358 96.409s34.433-59.215 42.732-91.99c5.91-23.342 4.412-72.099 4.412-72.099z" style="clip-rule:evenodd;fill:#39424b;fill-opacity:1;fill-rule:evenodd;stroke-width:.999999;stroke-linejoin:round;stroke-miterlimit:2;stop-color:#000"/><path d="M345.628 343.77s-44.261 28.99-60.368 49.403c-19.98 25.324-42.182 87.093-42.182 87.093s53.282-43.046 72.722-70.709c13.844-19.7 29.829-65.787 29.829-65.787zm131.857-50.18s30.053-43.548 37.266-68.529c8.949-30.99 6.204-96.572 6.204-96.572s-33.102 59.97-40.668 92.921c-5.387 23.468-2.802 72.18-2.802 72.18zm19.735-7.366s43.605-29.971 59.252-50.739c19.41-25.762 40.228-88.012 40.228-88.012s-52.309 44.225-71.127 72.315c-13.4 20.004-28.353 66.436-28.353 66.436zm-210.293 7.499s-30.054-43.548-37.267-68.529c-8.949-30.99-6.204-96.571-6.204-96.571s33.103 59.968 40.668 92.92c5.388 23.469 2.803 72.18 2.803 72.18zm-19.736-7.366s-43.605-29.971-59.251-50.738c-19.41-25.763-40.229-88.012-40.229-88.012s52.31 44.224 71.127 72.314c13.4 20.004 28.353 66.436 28.353 66.436zm183.89 35.926s51.672 11.384 73.976 24.748c27.67 16.58 70.358 66.44 70.358 66.44s-65.094-21.322-93.09-40.28c-19.937-13.5-51.244-50.908-51.244-50.908z" style="clip-rule:evenodd;fill:#39424b;fill-opacity:1;fill-rule:evenodd;stroke-width:.999999;stroke-linejoin:round;stroke-miterlimit:2;stop-color:#000"/><path d="M435.309 336.141s48.743 20.583 68.249 37.778c24.197 21.33 57.115 78.117 57.115 78.117s-60.138-32.794-84.222-56.523c-17.152-16.898-41.142-59.372-41.142-59.372zm-26.565 18.879s31.017 42.866 38.786 67.68c9.639 30.783 8.358 96.409 8.358 96.409s-34.433-59.215-42.732-91.99c-5.91-23.342-4.412-72.099-4.412-72.099z" style="clip-rule:evenodd;fill:#39424b;fill-opacity:1;fill-rule:evenodd;stroke-width:.999999;stroke-linejoin:round;stroke-miterlimit:2;stop-color:#000"/><path d="M418.796 349.092s44.261 28.99 60.368 49.403c19.98 25.324 42.182 87.093 42.182 87.093s-53.282-43.046-72.722-70.709c-13.844-19.7-29.829-65.787-29.829-65.787z" style="clip-rule:evenodd;fill:#39424b;fill-opacity:1;fill-rule:evenodd;stroke-width:.999999;stroke-linejoin:round;stroke-miterlimit:2;stop-color:#000"/><path d="M132.362 162.63s-27.229-45.368-46.993-62.263C60.848 79.407 0 54.795 0 54.795s40.92 54.933 67.798 75.444c19.14 14.607 64.564 32.39 64.564 32.39z" style="clip-rule:evenodd;display:inline;fill:#39424b;fill-opacity:1;fill-rule:evenodd;stroke-width:.999999;stroke-linejoin:round;stroke-miterlimit:2;stop-color:#000"/><path d="M171.438 201.468s10.034-64.07-.925-94.928C156.919 68.26 92.005 0 92.005 0s-.011 83.358 17.696 122.917c12.609 28.172 61.737 78.551 61.737 78.551z" style="clip-rule:evenodd;display:inline;fill:#39424b;fill-opacity:1;fill-rule:evenodd;stroke-width:1.52224;stroke-linejoin:round;stroke-miterlimit:2;stop-color:#000"/><path d="M632.062 162.63s27.229-45.368 46.993-62.263c24.521-20.96 85.369-45.572 85.369-45.572s-40.92 54.933-67.798 75.444c-19.14 14.607-64.564 32.39-64.564 32.39z" style="clip-rule:evenodd;display:inline;fill:#39424b;fill-opacity:1;fill-rule:evenodd;stroke-width:.999999;stroke-linejoin:round;stroke-miterlimit:2;stop-color:#000"/><path d="M592.986 201.468s-10.034-64.07.925-94.928C607.505 68.26 672.419 0 672.419 0s.011 83.358-17.696 122.917c-12.609 28.172-61.737 78.551-61.737 78.551z" style="clip-rule:evenodd;display:inline;fill:#39424b;fill-opacity:1;fill-rule:evenodd;stroke-width:1.52224;stroke-linejoin:round;stroke-miterlimit:2;stop-color:#000"/></g></svg>