<svg width="48" height="48" viewBox="0 0 48 48" fill="none" xmlns="http://www.w3.org/2000/svg">
    <g clip-path="url(#a)">
        <path
            d="M31.179 6.972c.477.477.84.91 1.086 1.295l-3.572 3.041c-.208-.362-.517-.748-.925-1.156-1.125-1.125-2.291-1.713-3.498-1.764-1.207-.05-2.33.446-3.37 1.486l-6.58 6.579-3.526-3.526L23.721 0l2.671 2.67-1.653 2.695.173.173a6.888 6.888 0 0 1 3.376-.127 5.66 5.66 0 0 1 2.89 1.561ZM6.972 16.749c.477-.478.91-.84 1.295-1.086l3.041 3.571c-.362.209-.748.517-1.157.925-1.125 1.126-1.712 2.291-1.763 3.498-.05 1.207.446 2.33 1.486 3.371l6.579 6.579-3.526 3.525L0 24.207l2.67-2.671 2.695 1.653.173-.174a6.877 6.877 0 0 1-.127-3.376 5.663 5.663 0 0 1 1.561-2.89Zm33.983 14.43c-.477.477-.91.84-1.295 1.086l-3.041-3.572c.362-.208.748-.517 1.157-.925 1.125-1.125 1.713-2.291 1.763-3.498.05-1.207-.446-2.33-1.486-3.37l-6.58-6.58 3.528-3.526 12.926 12.927-2.67 2.67-2.695-1.653-.173.174a6.877 6.877 0 0 1 .127 3.376 5.663 5.663 0 0 1-1.56 2.89ZM16.749 40.956c-.479-.478-.84-.91-1.087-1.295l3.572-3.041c.209.361.517.747.925 1.156 1.126 1.125 2.291 1.713 3.498 1.763 1.206.05 2.33-.445 3.37-1.486l6.579-6.579 3.527 3.527-12.926 12.926-2.671-2.67 1.653-2.695-.174-.173a6.866 6.866 0 0 1-3.376.127 5.668 5.668 0 0 1-2.89-1.56Z"
            fill="currentColor" />
        <path fill-rule="evenodd" clip-rule="evenodd"
            d="M33.606 23.964a9.643 9.643 0 1 1-19.287 0c0-5.326 4.318-9.643 9.644-9.643a9.643 9.643 0 0 1 9.643 9.643Zm-3.213 0a6.43 6.43 0 1 1-12.86-.002 6.43 6.43 0 0 1 12.86.002Z"
            fill="#FFC74D" />
        <path
            d="M27.178 23.964a3.207 3.207 0 0 1-.942 2.273 3.222 3.222 0 0 1-2.272.941 3.223 3.223 0 0 1-2.273-.94 3.207 3.207 0 0 1 0-4.546 3.214 3.214 0 0 1 5.487 2.272Z"
            fill="#FFC74D" />
    </g>
    <defs>
        <clipPath id="a">
            <path fill="currentColor" d="M0 0h48v48H0z" />
        </clipPath>
    </defs>
</svg>